<mxfile host="app.diagrams.net" modified="2023-11-21T16:00:20.076Z" agent="Mozilla/5.0 (Windows NT 10.0; Win64; x64) AppleWebKit/537.36 (KHTML, like Gecko) Chrome/119.0.0.0 Safari/537.36" etag="3dhFBQf07uvgk0jVhYQL" version="22.1.3" type="github">
  <diagram name="Page-1" id="5f0bae14-7c28-e335-631c-24af17079c00">
    <mxGraphModel dx="2074" dy="1188" grid="1" gridSize="10" guides="1" tooltips="1" connect="1" arrows="1" fold="1" page="1" pageScale="1" pageWidth="1100" pageHeight="850" background="#0F0F0F" math="0" shadow="0">
      <root>
        <mxCell id="0" />
        <mxCell id="1" parent="0" />
        <mxCell id="5xsaehZv1MHYvCr6EcZe-15" value="" style="rounded=0;whiteSpace=wrap;html=1;shadow=1;strokeColor=#0F0F0F;gradientColor=none;fillColor=#0F0F0F;" vertex="1" parent="1">
          <mxGeometry y="10" width="1080" height="840" as="geometry" />
        </mxCell>
        <mxCell id="5xsaehZv1MHYvCr6EcZe-9" style="edgeStyle=orthogonalEdgeStyle;rounded=0;hachureGap=4;orthogonalLoop=1;jettySize=auto;html=1;entryX=0.5;entryY=0;entryDx=0;entryDy=0;strokeColor=#FFFFFF;fontFamily=Architects Daughter;fontSource=https%3A%2F%2Ffonts.googleapis.com%2Fcss%3Ffamily%3DArchitects%2BDaughter;fontSize=16;" edge="1" parent="1" source="5xsaehZv1MHYvCr6EcZe-3" target="5xsaehZv1MHYvCr6EcZe-6">
          <mxGeometry relative="1" as="geometry">
            <Array as="points">
              <mxPoint x="540" y="160" />
            </Array>
          </mxGeometry>
        </mxCell>
        <mxCell id="5xsaehZv1MHYvCr6EcZe-3" value="部门服务" style="rounded=0;whiteSpace=wrap;html=1;hachureGap=4;strokeColor=#BAC8D3;fontFamily=Architects Daughter;fontSource=https%3A%2F%2Ffonts.googleapis.com%2Fcss%3Ffamily%3DArchitects%2BDaughter;fontSize=20;fontColor=#EEEEEE;fillColor=#09555B;" vertex="1" parent="1">
          <mxGeometry x="160" y="150" width="120" height="60" as="geometry" />
        </mxCell>
        <mxCell id="5xsaehZv1MHYvCr6EcZe-22" style="edgeStyle=orthogonalEdgeStyle;rounded=0;orthogonalLoop=1;jettySize=auto;html=1;entryX=0.5;entryY=1;entryDx=0;entryDy=0;fontFamily=Helvetica;fontSize=12;fontColor=default;strokeColor=#FFFFCC;" edge="1" parent="1" source="5xsaehZv1MHYvCr6EcZe-4" target="5xsaehZv1MHYvCr6EcZe-6">
          <mxGeometry relative="1" as="geometry" />
        </mxCell>
        <mxCell id="5xsaehZv1MHYvCr6EcZe-4" value="用户服务" style="rounded=0;whiteSpace=wrap;html=1;hachureGap=4;strokeColor=#BAC8D3;fontFamily=Architects Daughter;fontSource=https%3A%2F%2Ffonts.googleapis.com%2Fcss%3Ffamily%3DArchitects%2BDaughter;fontSize=20;fontColor=#EEEEEE;fillColor=#09555B;" vertex="1" parent="1">
          <mxGeometry x="160" y="395" width="120" height="60" as="geometry" />
        </mxCell>
        <mxCell id="5xsaehZv1MHYvCr6EcZe-20" style="edgeStyle=orthogonalEdgeStyle;rounded=0;orthogonalLoop=1;jettySize=auto;html=1;entryX=0.5;entryY=1;entryDx=0;entryDy=0;fontFamily=Helvetica;fontSize=12;fontColor=default;strokeColor=#FFFFCC;exitX=0;exitY=0.25;exitDx=0;exitDy=0;" edge="1" parent="1" source="5xsaehZv1MHYvCr6EcZe-6" target="5xsaehZv1MHYvCr6EcZe-3">
          <mxGeometry relative="1" as="geometry" />
        </mxCell>
        <mxCell id="5xsaehZv1MHYvCr6EcZe-23" style="edgeStyle=orthogonalEdgeStyle;rounded=0;orthogonalLoop=1;jettySize=auto;html=1;exitX=0;exitY=1;exitDx=0;exitDy=0;entryX=0.5;entryY=0;entryDx=0;entryDy=0;fontFamily=Helvetica;fontSize=12;fontColor=default;strokeColor=#FFFFCC;" edge="1" parent="1" source="5xsaehZv1MHYvCr6EcZe-6" target="5xsaehZv1MHYvCr6EcZe-4">
          <mxGeometry relative="1" as="geometry">
            <Array as="points">
              <mxPoint x="220" y="360" />
            </Array>
          </mxGeometry>
        </mxCell>
        <mxCell id="5xsaehZv1MHYvCr6EcZe-25" style="edgeStyle=orthogonalEdgeStyle;rounded=0;orthogonalLoop=1;jettySize=auto;html=1;entryX=0.5;entryY=1;entryDx=0;entryDy=0;fontFamily=Helvetica;fontSize=12;fontColor=default;strokeColor=#FFFFCC;" edge="1" parent="1" source="5xsaehZv1MHYvCr6EcZe-6" target="5xsaehZv1MHYvCr6EcZe-7">
          <mxGeometry relative="1" as="geometry" />
        </mxCell>
        <mxCell id="5xsaehZv1MHYvCr6EcZe-6" value="事件中心服务" style="rounded=0;whiteSpace=wrap;html=1;hachureGap=4;strokeColor=#BAC8D3;fontFamily=Architects Daughter;fontSource=https%3A%2F%2Ffonts.googleapis.com%2Fcss%3Ffamily%3DArchitects%2BDaughter;fontSize=20;fontColor=#EEEEEE;fillColor=#09555B;" vertex="1" parent="1">
          <mxGeometry x="480" y="300" width="120" height="60" as="geometry" />
        </mxCell>
        <mxCell id="5xsaehZv1MHYvCr6EcZe-24" style="edgeStyle=orthogonalEdgeStyle;rounded=0;orthogonalLoop=1;jettySize=auto;html=1;entryX=0.75;entryY=0;entryDx=0;entryDy=0;fontFamily=Helvetica;fontSize=12;fontColor=default;strokeColor=#FFFFCC;" edge="1" parent="1" source="5xsaehZv1MHYvCr6EcZe-7" target="5xsaehZv1MHYvCr6EcZe-6">
          <mxGeometry relative="1" as="geometry" />
        </mxCell>
        <mxCell id="5xsaehZv1MHYvCr6EcZe-7" value="xxx服务" style="rounded=0;whiteSpace=wrap;html=1;hachureGap=4;strokeColor=#BAC8D3;fontFamily=Architects Daughter;fontSource=https%3A%2F%2Ffonts.googleapis.com%2Fcss%3Ffamily%3DArchitects%2BDaughter;fontSize=20;fontColor=#EEEEEE;fillColor=#09555B;" vertex="1" parent="1">
          <mxGeometry x="850" y="150" width="120" height="60" as="geometry" />
        </mxCell>
        <mxCell id="5xsaehZv1MHYvCr6EcZe-10" value="&lt;font style=&quot;font-size: 13px;&quot;&gt;1 上报事件（WAIT）&lt;/font&gt;" style="text;html=1;align=center;verticalAlign=middle;resizable=0;points=[];autosize=1;strokeColor=none;fillColor=none;fontSize=20;fontFamily=Architects Daughter;fontColor=#EEEEEE;" vertex="1" parent="1">
          <mxGeometry x="330" y="124" width="140" height="40" as="geometry" />
        </mxCell>
        <mxCell id="5xsaehZv1MHYvCr6EcZe-12" style="edgeStyle=orthogonalEdgeStyle;rounded=0;hachureGap=4;orthogonalLoop=1;jettySize=auto;html=1;entryX=0.25;entryY=0;entryDx=0;entryDy=0;strokeColor=#FFFFFF;fontFamily=Architects Daughter;fontSource=https%3A%2F%2Ffonts.googleapis.com%2Fcss%3Ffamily%3DArchitects%2BDaughter;fontSize=16;exitX=1;exitY=0.5;exitDx=0;exitDy=0;" edge="1" parent="1" source="5xsaehZv1MHYvCr6EcZe-3" target="5xsaehZv1MHYvCr6EcZe-6">
          <mxGeometry relative="1" as="geometry">
            <mxPoint x="300" y="180" as="sourcePoint" />
            <mxPoint x="560" y="320" as="targetPoint" />
            <Array as="points">
              <mxPoint x="510" y="180" />
            </Array>
          </mxGeometry>
        </mxCell>
        <mxCell id="5xsaehZv1MHYvCr6EcZe-16" value="&lt;font style=&quot;font-size: 13px;&quot;&gt;2 确认上报事件（PROGRESS）&lt;/font&gt;" style="text;html=1;align=center;verticalAlign=middle;resizable=0;points=[];autosize=1;strokeColor=none;fillColor=none;fontSize=20;fontFamily=Architects Daughter;fontColor=#EEEEEE;" vertex="1" parent="1">
          <mxGeometry x="295" y="150" width="210" height="40" as="geometry" />
        </mxCell>
        <mxCell id="5xsaehZv1MHYvCr6EcZe-18" style="edgeStyle=orthogonalEdgeStyle;rounded=0;hachureGap=4;orthogonalLoop=1;jettySize=auto;html=1;entryX=0;entryY=0;entryDx=0;entryDy=0;strokeColor=#FFFFFF;fontFamily=Architects Daughter;fontSource=https%3A%2F%2Ffonts.googleapis.com%2Fcss%3Ffamily%3DArchitects%2BDaughter;fontSize=16;" edge="1" parent="1" target="5xsaehZv1MHYvCr6EcZe-6">
          <mxGeometry relative="1" as="geometry">
            <mxPoint x="280" y="210" as="sourcePoint" />
            <mxPoint x="520" y="320" as="targetPoint" />
            <Array as="points">
              <mxPoint x="280" y="210" />
              <mxPoint x="480" y="210" />
            </Array>
          </mxGeometry>
        </mxCell>
        <mxCell id="5xsaehZv1MHYvCr6EcZe-19" value="&lt;font style=&quot;font-size: 13px;&quot;&gt;4 确认完成事件（FINISH）&lt;/font&gt;" style="text;html=1;align=center;verticalAlign=middle;resizable=0;points=[];autosize=1;strokeColor=none;fillColor=none;fontSize=20;fontFamily=Architects Daughter;fontColor=#EEEEEE;" vertex="1" parent="1">
          <mxGeometry x="310" y="180" width="180" height="40" as="geometry" />
        </mxCell>
        <mxCell id="5xsaehZv1MHYvCr6EcZe-21" value="&lt;font style=&quot;font-size: 13px;&quot;&gt;3 发送事件&lt;/font&gt;" style="text;html=1;align=center;verticalAlign=middle;resizable=0;points=[];autosize=1;strokeColor=none;fillColor=none;fontSize=20;fontFamily=Architects Daughter;fontColor=#EEEEEE;" vertex="1" parent="1">
          <mxGeometry x="310" y="280" width="90" height="40" as="geometry" />
        </mxCell>
        <mxCell id="5xsaehZv1MHYvCr6EcZe-27" value="&lt;font style=&quot;font-size: 13px;&quot;&gt;上报事件、确认上报事件 。。。 确认完成事件&lt;/font&gt;" style="text;html=1;align=center;verticalAlign=middle;resizable=0;points=[];autosize=1;strokeColor=none;fillColor=none;fontSize=20;fontFamily=Architects Daughter;fontColor=#EEEEEE;" vertex="1" parent="1">
          <mxGeometry x="285" y="395" width="290" height="40" as="geometry" />
        </mxCell>
        <mxCell id="5xsaehZv1MHYvCr6EcZe-28" value="&lt;font style=&quot;font-size: 13px;&quot;&gt;发送事件&lt;/font&gt;" style="text;html=1;align=center;verticalAlign=middle;resizable=0;points=[];autosize=1;strokeColor=none;fillColor=none;fontSize=20;fontFamily=Architects Daughter;fontColor=#EEEEEE;" vertex="1" parent="1">
          <mxGeometry x="325" y="330" width="80" height="40" as="geometry" />
        </mxCell>
        <mxCell id="5xsaehZv1MHYvCr6EcZe-29" value="&lt;font style=&quot;font-size: 13px;&quot;&gt;上报事件、确认上报事件 。。。 确认完成事件&lt;/font&gt;" style="text;html=1;align=center;verticalAlign=middle;resizable=0;points=[];autosize=1;strokeColor=none;fillColor=none;fontSize=20;fontFamily=Architects Daughter;fontColor=#EEEEEE;" vertex="1" parent="1">
          <mxGeometry x="560" y="150" width="290" height="40" as="geometry" />
        </mxCell>
        <mxCell id="5xsaehZv1MHYvCr6EcZe-30" value="&lt;font style=&quot;font-size: 13px;&quot;&gt;发送事件&lt;/font&gt;" style="text;html=1;align=center;verticalAlign=middle;resizable=0;points=[];autosize=1;strokeColor=none;fillColor=none;fontSize=20;fontFamily=Architects Daughter;fontColor=#EEEEEE;" vertex="1" parent="1">
          <mxGeometry x="700" y="300" width="80" height="40" as="geometry" />
        </mxCell>
      </root>
    </mxGraphModel>
  </diagram>
</mxfile>
